<?xml version="1.0" standalone="no"?>
<!DOCTYPE svg PUBLIC "-//W3C//DTD SVG 20010904//EN"
 "http://www.w3.org/TR/2001/REC-SVG-20010904/DTD/svg10.dtd">
<svg version="1.0" xmlns="http://www.w3.org/2000/svg"
 width="1340.000000pt" height="1340.000000pt" viewBox="0 0 1340.000000 1340.000000"
 preserveAspectRatio="xMidYMid meet">
<metadata>
Created by potrace 1.14, written by Peter Selinger 2001-2017
</metadata>
<g transform="translate(0.000000,1340.000000) scale(0.100000,-0.100000)"
fill="#000000" stroke="none">
<path d="M0 6695 l0 -4465 6700 0 6700 0 0 4465 0 4465 -2312 0 c-2317 0
-2441 -2 -2718 -36 -1259 -156 -2414 -865 -3132 -1924 -454 -669 -693 -1369
-764 -2235 l-8 -90 -12 150 c-48 594 -192 1121 -449 1643 -575 1169 -1653
2041 -2910 2356 -325 81 -734 136 -1017 136 l-78 0 0 -4465z"/>
</g>
</svg>
